<?xml version="1.0" standalone="no"?><!DOCTYPE svg PUBLIC "-//W3C//DTD SVG 1.1//EN" "http://www.w3.org/Graphics/SVG/1.1/DTD/svg11.dtd"><svg t="1710830947689" class="icon" viewBox="0 0 1024 1024" version="1.1" xmlns="http://www.w3.org/2000/svg" p-id="10184" xmlns:xlink="http://www.w3.org/1999/xlink"><path d="M782.116 391.047a235.947 235.947 0 0 0-38.066 3.087c-48.551-101.58-152.204-171.759-272.3-171.759-156.248 0-284.699 118.785-300.099 270.937-0.491 0-0.984-0.028-1.528-0.028-90.986 0-164.769 73.755-164.769 164.739 0 78.289 54.614 143.798 127.85 160.563h275.032V614.359h-84.432L512 382.119 700.251 614.36h-84.433v204.227h305.835c58.763-43.034 96.992-112.557 96.992-190.98 0.001-130.636-105.894-236.56-236.529-236.56z" fill="currentColor" p-id="10185"></path></svg>